<?xml version="1.0" encoding="iso-8859-1"?>
<!-- Uploaded to: SVG Repo, www.svgrepo.com, Generator: SVG Repo Mixer Tools -->
<svg fill="#000000" version="1.1" id="Capa_1" xmlns="http://www.w3.org/2000/svg" xmlns:xlink="http://www.w3.org/1999/xlink" 
	 viewBox="0 0 60 60" xml:space="preserve">
<g>
	<g>
		<g>
			<path d="M59,3H1C0.4,3,0,3.4,0,4v41c0,0.6,0.4,1,1,1h28v5h-3c-0.6,0-1,0.4-1,1v4c0,0.6,0.4,1,1,1h8c0.6,0,1-0.4,1-1v-4
				c0-0.6-0.4-1-1-1h-3v-5h28c0.6,0,1-0.4,1-1V4C60,3.4,59.6,3,59,3z M33,55h-6v-2h6V55z M58,5v33H2V5H58z M2,44v-4h56v4H2z"/>
			<path d="M7,35h26c0.6,0,1-0.4,1-1V10c0-0.6-0.4-1-1-1H7c-0.6,0-1,0.4-1,1v24C6,34.6,6.4,35,7,35z M8,18h6v15H8V18z M16,33V18h16
				v15H16z M32,16H16v-5h16V16z M14,11v5H8v-5H14z"/>
			<rect x="10" y="20" width="2" height="2"/>
			<rect x="10" y="25" width="2" height="2"/>
			<rect x="10" y="29" width="2" height="2"/>
			<rect x="38" y="23" width="16" height="2"/>
			<rect x="38" y="28" width="16" height="2"/>
			<rect x="38" y="33" width="16" height="2"/>
			<path d="M39,20h14c0.6,0,1-0.4,1-1v-9c0-0.6-0.4-1-1-1H39c-0.6,0-1,0.4-1,1v9C38,19.6,38.4,20,39,20z M40,11h12v7H40V11z"/>
		</g>
	</g>
	<g>
	</g>
	<g>
	</g>
	<g>
	</g>
	<g>
	</g>
	<g>
	</g>
	<g>
	</g>
	<g>
	</g>
	<g>
	</g>
	<g>
	</g>
	<g>
	</g>
	<g>
	</g>
	<g>
	</g>
	<g>
	</g>
	<g>
	</g>
	<g>
	</g>
</g>
</svg>